<svg xmlns="http://www.w3.org/2000/svg" xmlns:xlink="http://www.w3.org/1999/xlink" version="1.1" x="0px" y="0px" viewBox="0 0 100 125" style="enable-background:new 0 0 100 100;" xml:space="preserve"><path d="M50,22.5150547c-1.6255379,0-2.9449043,1.3193054-2.9449043,2.9448433V50  c0,1.6255379,1.3193665,2.9448433,2.9449043,2.9448433h24.5401001c1.6255417,0,2.9448471-1.3193054,2.9448471-2.9448433  s-1.3193054-2.9448433-2.9448471-2.9448433H52.9448433V25.459898C52.9448433,23.8343601,51.6255379,22.5150547,50,22.5150547z"/><path d="M50,2.8824999c-16.9510155,0-32.5537834,8.8527555-41.2278748,22.3192406V13.6804619  c0-1.6255369-1.3192463-2.9447832-2.9447832-2.9447832c-1.625597,0-2.9448438,1.3192463-2.9448438,2.9447832v25.5223007  c0,1.6255379,1.3192468,2.9447861,2.9448438,2.9447861h25.5214539c1.6255379,0,2.9449043-1.3192482,2.9449043-2.9447861  c0-1.6255951-1.3193665-2.9449043-2.9449043-2.9449043H9.8187437C15.656848,20.1255779,31.9516907,8.7721872,50,8.7721872  c22.7341461,0,41.2278061,18.4936676,41.2278061,41.2278137S72.7341461,91.2278137,50,91.2278137  c-11.0259094,0-21.3681602-4.2914581-29.1271324-12.0935364c-1.1502705-1.1503906-3.0152569-1.1539001-4.1655865-0.0079346  c-1.1503296,1.146759-1.1582613,3.0117493-0.0079308,4.1663742C25.565546,92.2099533,37.3959579,97.1175003,50,97.1175003  c25.9809189,0,47.1175003-21.1358566,47.1175003-47.1175003C97.1175003,24.0190792,75.9809189,2.8824999,50,2.8824999z"/></svg>